<svg xmlns="http://www.w3.org/2000/svg" xmlns:xlink="http://www.w3.org/1999/xlink" width="242" height="212" viewBox="0 0 242 212">
  <defs>
    <clipPath id="clip-path">
      <rect id="Ret창ngulo_87" data-name="Ret창ngulo 87" width="242" height="212" transform="translate(0 0.102)"/>
    </clipPath>
  </defs>
  <g id="Grupo_343" data-name="Grupo 343" transform="translate(-29 -44)">
    <g id="Digital_nomad" data-name="Digital nomad" transform="translate(150 149.898)">
      <g id="Digital_nomad-2" data-name="Digital nomad" transform="translate(-121 -106)">
        <g id="Grupo_86" data-name="Grupo 86" transform="translate(0 0)" clip-path="url(#clip-path)">
          <path id="Caminho_83" data-name="Caminho 83" d="M254.352,196.831a112.208,112.208,0,0,1-.931,14.368c-.217,1.647-11.762,3.272-12.066,4.9-.282,1.625,10.679,3.251,10.333,4.855A109,109,0,0,1,36.63,204.2c-.152-2.427,55.042-4.9,55.042-7.368,0-2.059-55.216-4.1-55.107-6.111a109.531,109.531,0,0,1,3.423-21.78c.607-2.319-18.824-4.616-18.066-6.892.693-2.081,21.6-4.118,22.4-6.133a108.23,108.23,0,0,1,9.163-17.749c1.581-2.449,63.231-4.855,65.007-7.173,1.408-1.864-57.122-3.684-55.584-5.44a108.922,108.922,0,0,1,159.517-5.808c2.3,2.3,27.359,4.7,29.438,7.2s-18.8,5.093-16.939,7.759a108.686,108.686,0,0,1,8.188,13.892c1.278,2.579-159.8,7.889,3.509,7.889q1.787,4.486,3.184,9.167A108.256,108.256,0,0,1,254.352,196.831Z" transform="translate(-17.156 -68.838)" fill="#cce9ff"/>
        </g>
        <g id="Grupo_87" data-name="Grupo 87" transform="translate(0 0)" clip-path="url(#clip-path)">
          <path id="Caminho_84" data-name="Caminho 84" d="M-197.005,655.135c9.25-1.127,18.564-2.211,27.727-3.814,8.838-1.539,17.091-2.882,25.712-6.957,3.986-1.885,15.207-8,20.254-12.2,2.686-2.254,44.861,12.613,54.458,15.539a368.305,368.305,0,0,0,56.927,12.873c22.766,3.142,46.118,5.028,68.668.087,1.56-.347,17.048-3.316,17.048-4.616v54.786L-219.1,711.915V658.234C-211.822,656.912-204.392,656.045-197.005,655.135Z" transform="translate(171.639 -495.045)" fill="#ffbe55"/>
        </g>
        <g id="Grupo_88" data-name="Grupo 88" transform="translate(0 0)" clip-path="url(#clip-path)">
          <path id="Caminho_85" data-name="Caminho 85" d="M-122.662,634.346a9.152,9.152,0,0,0,3.076,3.251,40.536,40.536,0,0,0,7.105,3.836c5.2,2.167,10.723,4.009,15.38,6.892,2.145,1.322,4.462,3.012,5.112,5.2.8,2.622-1.148,5.245-3.682,6.827a27.589,27.589,0,0,1-10.463,3.316,141.857,141.857,0,0,1-16.051,1.019c-11.134.3-22.225.672-33.316,1.69a316.848,316.848,0,0,0-32.709,4.659c-10.246,2.037-20.384,2.752-30.89,3.771V658.423c7.278-1.344,14.708-2.189,22.095-3.1,9.25-1.127,18.564-2.211,27.727-3.814,8.838-1.539,17.091-2.882,25.712-6.957,3.986-1.885,15.207-8,20.254-12.2a.822.822,0,0,1,.368-.152A3.372,3.372,0,0,0-122.662,634.346Z" transform="translate(171.639 -495.256)" opacity="0.06"/>
        </g>
        <g id="Grupo_89" data-name="Grupo 89" transform="translate(0 0)" clip-path="url(#clip-path)">
          <path id="Caminho_86" data-name="Caminho 86" d="M-60.061,817.69a466.2,466.2,0,0,1,47.071,5.461A184.378,184.378,0,0,0,23.77,825.3c9.769-.412,19.5-1.387,29.157-2.579,14.9-1.842,30.716-4.616,45.879-3.164v40.635H-189.1V819.857C-185.353,819.987-86.337,816.238-60.061,817.69Z" transform="translate(148.138 -640.285)" opacity="0.06"/>
        </g>
        <g id="Grupo_90" data-name="Grupo 90" transform="translate(0 0)" clip-path="url(#clip-path)">
          <path id="Caminho_87" data-name="Caminho 87" d="M708.2,810.265l4.376,5.635s-5.87,6.545-3.921,5.938c1.971-.607,12.759-9.3,12.759-9.3s-5.22-7-5.134-7.043C716.41,805.433,708.2,810.265,708.2,810.265Z" transform="translate(-554.792 -630.996)" fill="#0b4870"/>
        </g>
        <g id="Grupo_91" data-name="Grupo 91" transform="translate(0 0)" clip-path="url(#clip-path)">
          <path id="Caminho_88" data-name="Caminho 88" d="M633.477,629.8l18.5,39.009-11.762,6.632L621,640.486,622.213,629Z" transform="translate(-486.481 -492.749)" fill="#0b4870"/>
        </g>
        <g id="Grupo_92" data-name="Grupo 92" transform="translate(0 0)" clip-path="url(#clip-path)">
          <path id="Caminho_89" data-name="Caminho 89" d="M899.6,683.073l13.842,47.5h1.581L904.409,682.9Z" transform="translate(-704.731 -534.968)" fill="#cdd5d7"/>
        </g>
        <g id="Grupo_93" data-name="Grupo 93" transform="translate(0 0)" clip-path="url(#clip-path)">
          <path id="Caminho_90" data-name="Caminho 90" d="M746.228,684.722,735.7,731.186h1.863l14.08-46.486Z" transform="translate(-576.335 -536.378)" fill="#cdd5d7"/>
        </g>
        <g id="Grupo_94" data-name="Grupo 94" transform="translate(0 0)" clip-path="url(#clip-path)">
          <path id="Caminho_91" data-name="Caminho 91" d="M841.2,679.8l1.6,47.548h2.209l.975-47.353Z" transform="translate(-658.982 -532.54)" fill="#cdd5d7"/>
        </g>
        <g id="Grupo_95" data-name="Grupo 95" transform="translate(0 0)" clip-path="url(#clip-path)">
          <path id="Caminho_92" data-name="Caminho 92" d="M773.461,768l31.583-1,.217,3.272L771.1,771.594Z" transform="translate(-604.067 -600.842)" fill="#cdd5d7"/>
        </g>
        <g id="Grupo_96" data-name="Grupo 96" transform="translate(0 0)" clip-path="url(#clip-path)">
          <path id="Caminho_93" data-name="Caminho 93" d="M742.4,423.155S737.27,366.7,743.9,366.18s21.64-5.288,24.348,4.334c2.838,10.121-1,64.192-4.809,63.672-6.585-.91-13.517-.108-20.124.173-2.708.13-30.933,2.384-27.164-4.421,1.1-1.994,5.5-2.8,7.43-3.337a112.4,112.4,0,0,1,11.047-2.341C735.06,424.239,742.382,423.134,742.4,423.155Z" transform="translate(-560.748 -285.604)" fill="#f7f7f7"/>
        </g>
        <g id="Grupo_97" data-name="Grupo 97" transform="translate(0 0)" clip-path="url(#clip-path)">
          <path id="Caminho_94" data-name="Caminho 94" d="M921.987,397.293c.022-.022.152.152.368.5a5.845,5.845,0,0,1,.368.672,9.61,9.61,0,0,1,.433.932,21.9,21.9,0,0,1,1.56,6.437,81.416,81.416,0,0,1,.26,9.8c-.065,3.684-.281,7.715-.606,11.941-.347,4.226-.737,8.257-1.126,11.9-.368,3.641-.758,6.957-1.256,9.687a42,42,0,0,1-1.646,6.393,10.106,10.106,0,0,1-.975,2.211,18.53,18.53,0,0,1,.628-2.319,54.988,54.988,0,0,0,1.343-6.393c.433-2.731.737-6,1.061-9.666s.715-7.672,1.04-11.9.585-8.235.693-11.9a94.516,94.516,0,0,0-.065-9.709,25.207,25.207,0,0,0-1.256-6.372C922.334,398.074,921.922,397.315,921.987,397.293Z" transform="translate(-720.209 -311.257)" fill="#d3d3d3"/>
        </g>
        <g id="Grupo_98" data-name="Grupo 98" transform="translate(0 0)" clip-path="url(#clip-path)">
          <path id="Caminho_95" data-name="Caminho 95" d="M568.214,483.547l-1.646-.889a18.536,18.536,0,0,1-2.794-1.43,5.388,5.388,0,0,1-1.191-1.019,7.431,7.431,0,0,1-1.126-1.582c-.238-.542-.975-.585-1.1-.087-.108.5.477,2.016,1.863,3.381s-1.538.954-2.6.823-4.376-.368-4.636-.087c-.39.433.043.975,1.1,1.084,1.083.108,4.267.65,4.224,1.192s-5.48-.2-5.48-.2-1.148-.347-1.235.3c-.13,1.149,5.654,1.517,6.217,1.539a.3.3,0,1,1-.065.585c-.433-.043-5.415-.867-5.545.3-.108.888,4.766.347,5.762,1.084s-3.769.043-3.834.91c-.022.325,0,.563,2.751.585,2.816,0,10.376-1.214,10.376-1.214l-1.083-5.353" transform="translate(-433.673 -374.625)" fill="#ffba98"/>
        </g>
        <g id="Grupo_99" data-name="Grupo 99" transform="translate(0 0)" clip-path="url(#clip-path)">
          <path id="Caminho_96" data-name="Caminho 96" d="M644.506,398.3s-14.21,19.093-17.459,19.96c-3.249.845-21.878,1.972-21.878,1.972l-1.668,8.062s23.849,1.257,29.092-2.622c8.253-6.09,16.918-20.111,16.918-20.111C649.726,400.944,647.95,398.625,644.506,398.3Z" transform="translate(-472.772 -312.046)" fill="#ffbe55"/>
        </g>
        <g id="Grupo_100" data-name="Grupo 100" transform="translate(0 0)" clip-path="url(#clip-path)">
          <path id="Caminho_97" data-name="Caminho 97" d="M593.573,859.7l.91,7.087s-8.383,2.644-6.39,3.121,15.726-1.5,15.726-1.5-.932-8.669-.823-8.669C603.082,859.722,593.573,859.7,593.573,859.7Z" transform="translate(-460.461 -673.453)" fill="#0e538c"/>
        </g>
        <g id="Grupo_101" data-name="Grupo 101" transform="translate(0 0)" clip-path="url(#clip-path)">
          <path id="Caminho_98" data-name="Caminho 98" d="M822.608,563.1s7.906,16.926-7.69,22.734L806.6,567.716Z" transform="translate(-631.877 -441.131)" fill="#0e538c"/>
        </g>
        <g id="Grupo_102" data-name="Grupo 102" transform="translate(0 0)" clip-path="url(#clip-path)">
          <path id="Caminho_99" data-name="Caminho 99" d="M641.785,561.6s-45.056-12.375-50.125-1.994c-5.069,10.4.953,64.539.953,64.539l14.1-1.474s-2.339-47.526,0-49.2,34.81,6.545,38.211,6.393C653.244,579.481,659.114,563.986,641.785,561.6Z" transform="translate(-461.906 -435.147)" fill="#0e538c"/>
        </g>
        <g id="Grupo_103" data-name="Grupo 103" transform="translate(0 0)" clip-path="url(#clip-path)">
          <path id="Caminho_100" data-name="Caminho 100" d="M774.166,374.23a11.263,11.263,0,0,0-11,10.728c-.217,4.919.26,11.659-1.083,17.6-.693,3.056-4.679,15.365-4.679,15.365l4.007.672a43.646,43.646,0,0,0,18.564-.91l4.549-1.235s2.621-13.675,4.116-26.526c1.235-10.728-.8-14.91-7.322-15.82Z" transform="translate(-593.334 -293.091)" fill="#ffbe55"/>
        </g>
        <g id="Grupo_104" data-name="Grupo 104" transform="translate(0 0)" clip-path="url(#clip-path)">
          <path id="Caminho_101" data-name="Caminho 101" d="M804.851,282.9a43.662,43.662,0,0,0-.13-5.418s-3.986-.5-4.137-4.464.282-13.111.282-13.111l7.343-3.4,7.885,6.241.715,4.378-1.819,5.2-.823,9.926Z" transform="translate(-627.138 -200.977)" fill="#ffe3ca"/>
        </g>
        <g id="Grupo_105" data-name="Grupo 105" transform="translate(0 0)" clip-path="url(#clip-path)">
          <path id="Caminho_102" data-name="Caminho 102" d="M819.8,347.169a9.862,9.862,0,0,0,5.285-1.669,5.136,5.136,0,0,1-5.22,2.644Z" transform="translate(-642.217 -270.689)" fill="#fcd2b1"/>
        </g>
        <g id="Grupo_106" data-name="Grupo 106" transform="translate(0 0)" clip-path="url(#clip-path)">
          <path id="Caminho_103" data-name="Caminho 103" d="M733.673,558.53l-1.863-.108a16.368,16.368,0,0,1-3.141-.13,4.676,4.676,0,0,1-1.516-.433,7.231,7.231,0,0,1-1.69-.975c-.433-.412-1.148-.13-1.04.368s1.278,1.625,3.119,2.3c1.841.65-1,1.517-2.015,1.842s-4.137,1.5-4.246,1.864c-.173.563.433.867,1.451.52s4.137-1.214,4.332-.672c.195.52-5.047,2.124-5.047,2.124s-1.191.173-1,.78c.368,1.105,5.762-1,6.282-1.214.347-.152.585.412.195.564-.411.152-5.264,1.5-4.917,2.622.282.867,4.462-1.69,5.675-1.43s-3.4,1.625-3.119,2.427c.108.3.238.52,2.751-.629a99.647,99.647,0,0,0,8.9-5.461l-3.228-4.4" transform="translate(-564.82 -436.107)" fill="#ffe3ca"/>
        </g>
        <g id="Grupo_107" data-name="Grupo 107" transform="translate(0 0)" clip-path="url(#clip-path)">
          <path id="Caminho_104" data-name="Caminho 104" d="M805.7,466.1s8.859-2.536,14.492-7.78c4.484-4.183,4.419-8.062,4.419-8.062L826.734,434Z" transform="translate(-631.172 -340.01)" opacity="0.05"/>
        </g>
        <g id="Grupo_108" data-name="Grupo 108" transform="translate(0 0)" clip-path="url(#clip-path)">
          <path id="Caminho_105" data-name="Caminho 105" d="M785.358,377.891s-1.69,23.752-3.986,26.223S764,417.572,764,417.572l2.946,7.694s20.774-11.789,23.113-17.879c2.816-7.368,3.336-18.811,3.422-23.709a6.7,6.7,0,0,0-2.426-5.375A4.874,4.874,0,0,0,785.358,377.891Z" transform="translate(-598.505 -295.495)" fill="#ffbe55"/>
        </g>
        <g id="Grupo_109" data-name="Grupo 109" transform="translate(0 0)" clip-path="url(#clip-path)">
          <path id="Caminho_106" data-name="Caminho 106" d="M816.467,669.028c-.087.26-6.174-.39-13.734-.8-7.56-.433-13.734-.455-13.734-.737-.022-.238,6.2-.628,13.864-.2C810.51,667.728,816.553,668.79,816.467,669.028Z" transform="translate(-618.089 -522.592)" fill="#d3d3d3"/>
        </g>
        <g id="Grupo_110" data-name="Grupo 110" transform="translate(0 0)" opacity="0.05" clip-path="url(#clip-path)">
          <path id="Caminho_107" data-name="Caminho 107" d="M791.555,415.2a5.054,5.054,0,0,1,.087,1.539c0,1-.022,2.427-.152,4.183a39.169,39.169,0,0,1-.888,6.176,22.11,22.11,0,0,1-2.9,7.108,24.106,24.106,0,0,1-5.307,5.548c-1.841,1.452-3.6,2.622-5.047,3.619-2.924,1.972-4.571,3.359-4.657,3.272-.043-.043.325-.455,1.062-1.127s1.841-1.582,3.249-2.622c1.408-1.062,3.119-2.276,4.917-3.728a24.473,24.473,0,0,0,5.091-5.418,22.194,22.194,0,0,0,2.859-6.827,44.9,44.9,0,0,0,1.04-6.046A51.813,51.813,0,0,1,791.555,415.2Z" transform="translate(-605.308 -325.283)"/>
        </g>
        <g id="Grupo_111" data-name="Grupo 111" transform="translate(0 0)" clip-path="url(#clip-path)">
          <path id="Caminho_108" data-name="Caminho 108" d="M836.6,364.394l.325-3.533,5.74-1.062,1.733,3.771Z" transform="translate(-655.378 -281.89)" fill="#ffbe55"/>
        </g>
        <g id="Grupo_112" data-name="Grupo 112" transform="translate(0 0)" clip-path="url(#clip-path)">
          <path id="Caminho_109" data-name="Caminho 109" d="M817.607,360.428l2.274.433v3.533L817,363.809l.715-4.009" transform="translate(-640.024 -281.89)" fill="#ffbe55"/>
        </g>
        <g id="Grupo_113" data-name="Grupo 113" transform="translate(0 0)" clip-path="url(#clip-path)">
          <rect id="Ret창ngulo_114" data-name="Ret창ngulo 114" width="145.133" height="4.746" transform="translate(81.881 120.04)" fill="#2a94f4"/>
        </g>
        <g id="Grupo_114" data-name="Grupo 114" transform="translate(0 0)" clip-path="url(#clip-path)">
          <path id="Caminho_110" data-name="Caminho 110" d="M389.351,576.1,378,647.509l5.675.108L403.149,576.1Z" transform="translate(-296.119 -451.314)" fill="#2a94f4"/>
        </g>
        <g id="Grupo_115" data-name="Grupo 115" transform="translate(0 0)" clip-path="url(#clip-path)">
          <path id="Caminho_111" data-name="Caminho 111" d="M949.612,564.51l6.629,73.684h-5.307l-14.275-70.629L935.9,562.3l13.712,2.211" transform="translate(-733.168 -440.505)" fill="#2a94f4"/>
        </g>
        <g id="Grupo_116" data-name="Grupo 116" transform="translate(0 0)" clip-path="url(#clip-path)">
          <path id="Caminho_112" data-name="Caminho 112" d="M937.9,576.1l.52,3.294,13.084-.5-.26-2.8Z" transform="translate(-734.735 -451.314)" fill="#0e538c"/>
        </g>
        <g id="Grupo_117" data-name="Grupo 117" transform="translate(0 0)" clip-path="url(#clip-path)">
          <path id="Caminho_113" data-name="Caminho 113" d="M428.442,576.1l-.542,3.359,13.539-.368.8-2.991Z" transform="translate(-335.21 -451.314)" fill="#0e538c"/>
        </g>
        <g id="Grupo_118" data-name="Grupo 118" transform="translate(0 0)" clip-path="url(#clip-path)">
          <path id="Caminho_114" data-name="Caminho 114" d="M478.3,432.2l9.055,26.44H528.3l-.3-1.365-16.571-.5L503.8,432.2Z" transform="translate(-374.692 -338.6)" fill="#f7f7f7"/>
        </g>
        <g id="Grupo_119" data-name="Grupo 119" transform="translate(0 0)" clip-path="url(#clip-path)">
          <path id="Caminho_115" data-name="Caminho 115" d="M550.79,483.517a1.875,1.875,0,0,1-1.04,2.362,1.811,1.811,0,0,1-2.015-1.56,1.875,1.875,0,0,1,1.04-2.362A1.822,1.822,0,0,1,550.79,483.517Z" transform="translate(-429.03 -377.542)" fill="#d3d3d3"/>
        </g>
        <g id="Grupo_120" data-name="Grupo 120" transform="translate(0 0)" clip-path="url(#clip-path)">
          <path id="Caminho_116" data-name="Caminho 116" d="M918.51,451.1a78.425,78.425,0,0,1-2.08-14.217,5.789,5.789,0,0,1,.2-2.514,2.157,2.157,0,0,1,1.885-1.474,2.119,2.119,0,0,1,1.69,1.127,5.913,5.913,0,0,1,.628,2.015c.78,3.988,1.56,7.954,2.339,11.941a14.518,14.518,0,0,1,2.881-3.793c.52-.5,1.278-.975,1.906-.628.563.3.628,1.084.607,1.734a32.769,32.769,0,0,1-.737,5.808" transform="translate(-717.879 -339.148)" fill="#ffbe55"/>
        </g>
        <g id="Grupo_121" data-name="Grupo 121" transform="translate(0 0)" clip-path="url(#clip-path)">
          <path id="Caminho_117" data-name="Caminho 117" d="M917.7,515s-2.036,8.105,6.217,8.474c7.6.347,5.784-8.474,5.784-8.474Z" transform="translate(-718.733 -403.455)" fill="#0e538c"/>
        </g>
        <g id="Grupo_122" data-name="Grupo 122" transform="translate(0 0)" clip-path="url(#clip-path)">
          <path id="Caminho_118" data-name="Caminho 118" d="M827.161,287.777a.985.985,0,0,1,.173.087,3.073,3.073,0,0,1,.477.347,3.146,3.146,0,0,1,.91,3.316,3.42,3.42,0,0,1-.91,1.43,3.5,3.5,0,0,1-.78.52,3.322,3.322,0,0,1-.932.282,3.155,3.155,0,0,1-1.971-.347,3.2,3.2,0,0,1-1.365-1.474,2.9,2.9,0,0,1-.282-.932,3.356,3.356,0,0,1,0-.932,3.245,3.245,0,0,1,.693-1.539,3.143,3.143,0,0,1,3.271-1.04,2.3,2.3,0,0,1,.542.217c.108.022.173.043.173.065a5.05,5.05,0,0,0-.736-.238,3.109,3.109,0,0,0-2.015.2,2.767,2.767,0,0,0-1.1.867,3.271,3.271,0,0,0-.65,1.474,2.906,2.906,0,0,0,0,.867,3.077,3.077,0,0,0,1.56,2.254,3.131,3.131,0,0,0,1.863.347,3.16,3.16,0,0,0,1.6-.737,3.106,3.106,0,0,0,1.018-2.752,3.122,3.122,0,0,0-.932-1.8A4.656,4.656,0,0,0,827.161,287.777Z" transform="translate(-644.293 -225.168)" fill="#0b4870"/>
        </g>
        <g id="Grupo_123" data-name="Grupo 123" transform="translate(0 0)" clip-path="url(#clip-path)">
          <path id="Caminho_119" data-name="Caminho 119" d="M791.222,286.091h.195a2.222,2.222,0,0,1,.563.087,3.211,3.211,0,0,1,1.733,1.192,3.248,3.248,0,0,1,.563,1.365,3.093,3.093,0,0,1-.2,1.69,2.947,2.947,0,0,1-.455.8,2.565,2.565,0,0,1-.715.65,3.153,3.153,0,0,1-1.928.563,3.236,3.236,0,0,1-1.885-.694,2.565,2.565,0,0,1-.65-.715,3.256,3.256,0,0,1-.412-.824,3.017,3.017,0,0,1-.065-1.69,3.155,3.155,0,0,1,.65-1.322,3.32,3.32,0,0,1,1.8-1.084,1.946,1.946,0,0,1,.585-.043,1.768,1.768,0,0,0,.217.022c0,.022-.282,0-.758.108a3.01,3.01,0,0,0-1.711,1.084,3.338,3.338,0,0,0-.606,1.279,2.915,2.915,0,0,0,.087,1.6,2.638,2.638,0,0,0,.39.78,3.052,3.052,0,0,0,.628.672,3.016,3.016,0,0,0,1.776.65,3.133,3.133,0,0,0,1.819-.52,3.083,3.083,0,0,0,.672-.628,2.445,2.445,0,0,0,.433-.759,3.165,3.165,0,0,0,.195-1.6,3.258,3.258,0,0,0-.52-1.322,3.022,3.022,0,0,0-1.646-1.192C791.5,286.113,791.222,286.113,791.222,286.091Z" transform="translate(-617.213 -224.132)" fill="#0b4870"/>
        </g>
        <g id="Grupo_124" data-name="Grupo 124" transform="translate(0 0)" clip-path="url(#clip-path)">
          <path id="Caminho_120" data-name="Caminho 120" d="M816.8,302.044a1.3,1.3,0,0,1,.671-.065,1.643,1.643,0,0,1,.672.108,1.3,1.3,0,0,1-.672.065C817.1,302.153,816.8,302.109,816.8,302.044Z" transform="translate(-639.867 -236.596)" fill="#0b4870"/>
        </g>
        <g id="Grupo_125" data-name="Grupo 125" transform="translate(0 0)" clip-path="url(#clip-path)">
          <path id="Caminho_121" data-name="Caminho 121" d="M851.1,303.313a8.292,8.292,0,0,1,1.625-.043,7.15,7.15,0,0,1,1.625.152,8.286,8.286,0,0,1-1.625.043A5.787,5.787,0,0,1,851.1,303.313Z" transform="translate(-666.737 -237.604)" fill="#0b4870"/>
        </g>
        <g id="Grupo_126" data-name="Grupo 126" transform="translate(0 0)" clip-path="url(#clip-path)">
          <path id="Caminho_122" data-name="Caminho 122" d="M815.237,271.073c2.123-2.319,2.318-5.7,2.361-8.842a8.431,8.431,0,0,0-.823-4.4,7.088,7.088,0,0,0-3.444-2.687,11.792,11.792,0,0,0-6.672-.91,7.865,7.865,0,0,0-5.459,3.728s10.333-.2,11,.2c.672.412,2.816,1.907,2.643,3.728-.173,1.842-.693,4.551-.693,4.551l1.668-.26s-.13-2.514.585-2.427C817.1,263.856,815.237,271.073,815.237,271.073Z" transform="translate(-627.647 -199.08)" fill="#0b4870"/>
        </g>
        <g id="Grupo_127" data-name="Grupo 127" transform="translate(0 0)" clip-path="url(#clip-path)">
          <path id="Caminho_123" data-name="Caminho 123" d="M868.2,301.142a.731.731,0,0,0,.693.477,1.336,1.336,0,0,0,.823-.347,2.463,2.463,0,0,0,.975-1.56,1.653,1.653,0,0,0-.737-1.625,1.256,1.256,0,0,0-1.668.368Z" transform="translate(-680.133 -233.418)" fill="#ffe3ca"/>
        </g>
      </g>
    </g>
  </g>
</svg>
