<svg xmlns="http://www.w3.org/2000/svg" xmlns:xlink="http://www.w3.org/1999/xlink" width="633" height="420" viewBox="0 0 633 420">
  <defs>
    <clipPath id="clip-path">
      <rect id="Retângulo_37" data-name="Retângulo 37" width="57" height="41" rx="20.5" transform="translate(459 257.473)" fill="#00ff3b"/>
    </clipPath>
    <clipPath id="clip-Web_1920_1">
      <rect width="633" height="420"/>
    </clipPath>
  </defs>
  <g id="Web_1920_1" data-name="Web 1920 – 1" clip-path="url(#clip-Web_1920_1)">
    <rect width="633" height="420" fill="#fff"/>
    <rect id="Retângulo_1" data-name="Retângulo 1" width="293" height="182" rx="19" transform="translate(125 35)" fill="#2c4ca3"/>
    <g id="Retângulo_2" data-name="Retângulo 2" transform="translate(368 85)" fill="#fff" stroke="#707070" stroke-width="1">
      <rect width="27" height="1" stroke="none"/>
      <rect x="0.5" y="0.5" width="26" fill="none"/>
    </g>
    <rect id="Retângulo_3" data-name="Retângulo 3" width="253" height="147" rx="1" transform="translate(145 52)" fill="#fff"/>
    <rect id="Retângulo_4" data-name="Retângulo 4" width="52" height="36" transform="translate(164 85)" fill="#c7cddb"/>
    <rect id="Retângulo_5" data-name="Retângulo 5" width="52" height="36" transform="translate(240 85)" fill="#c7cddb"/>
    <rect id="Retângulo_6" data-name="Retângulo 6" width="52" height="36" transform="translate(316 85)" fill="#c7cddb"/>
    <rect id="Retângulo_7" data-name="Retângulo 7" width="52" height="36" transform="translate(164 134)" fill="#c7cddb"/>
    <rect id="Retângulo_8" data-name="Retângulo 8" width="52" height="36" transform="translate(240 134)" fill="#c7cddb"/>
    <rect id="Retângulo_9" data-name="Retângulo 9" width="52" height="36" transform="translate(316 134)" fill="#c7cddb"/>
    <rect id="Retângulo_10" data-name="Retângulo 10" width="132" height="11" transform="translate(240 181)" fill="#c7cddb"/>
    <g id="Retângulo_11" data-name="Retângulo 11" transform="translate(125 217)" fill="#fff" stroke="#2c4ca3" stroke-width="5">
      <rect width="293" height="48" rx="16" stroke="none"/>
      <rect x="2.5" y="2.5" width="288" height="43" rx="13.5" fill="none"/>
    </g>
    <path id="Caminho_1" data-name="Caminho 1" d="M863.148,446l-18.965,49.055h90.328L920.691,446" transform="translate(-618.012 -183)" fill="none" stroke="#2c4ca3" stroke-width="5"/>
    <rect id="Retângulo_12" data-name="Retângulo 12" width="174" height="17" transform="translate(185 312)" fill="#fff" stroke="#2c4ca3" stroke-linecap="square" stroke-linejoin="round" stroke-width="5" stroke-dasharray="1"/>
    <rect id="Retângulo_13" data-name="Retângulo 13" width="253" height="27" transform="translate(145 48)" fill="#1e87f0"/>
    <text id="ONNZY" transform="translate(177 64)" fill="#fff" font-size="6" font-family="GoodTimesHv-Regular, Good Times"><tspan x="0" y="0">ONNZY</tspan></text>
    <ellipse id="Elipse_1" data-name="Elipse 1" cx="11" cy="10.5" rx="11" ry="10.5" transform="translate(261 231)" fill="#3e68ac"/>
    <g id="business-deal" transform="translate(191.051 162.75)">
      <g id="business-deal-2" data-name="business-deal" transform="translate(-46.051 -36.75)">
        <g id="Grupo_1" data-name="Grupo 1" transform="translate(79.363 25.914)">
          <ellipse id="Elipse_2" data-name="Elipse 2" cx="6.369" cy="6.369" rx="6.369" ry="6.369" fill="none" stroke="#c1c1c1" stroke-miterlimit="10" stroke-width="0.091" stroke-dasharray="12.278 12.278"/>
        </g>
        <g id="Grupo_2" data-name="Grupo 2" transform="translate(0.402 4.016)">
          <path id="Caminho_2" data-name="Caminho 2" d="M103.925,212.85a19.561,19.561,0,0,1,7.031,3.659c1.826,1.695,2.741,4.131,1.645,6.17-1.463,2.723-6.1,4.307-6.12,7.257-.015,2.113,2.5,3.726,5.039,4.494s5.35,1.045,7.659,2.167c3.485,1.694,5.119,4.973,5.788,8.119.694,3.267.413,6.986-2.569,9.356-3.706,2.946-9.835,2.614-15.082,1.985-7-.838-13.972-1.823-20.94-2.808l-45.832-6.476a13.01,13.01,0,0,1-4.674-1.26,4.773,4.773,0,0,1-1.331-6.989c1.536-2.27,4.378-3.812,7.2-5.147s5.8-2.6,7.918-4.568,3.166-4.888,1.566-7.132c-1.355-1.9-4.268-2.916-5.537-4.852-1.673-2.55.252-5.808,3.287-7.436S90.135,208.175,103.925,212.85Z" transform="translate(-33.585 -208.526)" fill="#f7f7f7"/>
        </g>
        <g id="Grupo_7" data-name="Grupo 7" transform="translate(43.177 5.121)">
          <g id="Grupo_4" data-name="Grupo 4" transform="translate(23.462 30.142)">
            <path id="Caminho_3" data-name="Caminho 3" d="M775.3,555.105l-1.154.23-.166-.83a1.015,1.015,0,0,0-1.165-.833l-5.69,1.135a1.015,1.015,0,0,0-.757,1.216l.166.83-1.154.23a.253.253,0,0,0-.188.3l1.209,6.061a.253.253,0,0,0,.29.206l9.923-1.979a.253.253,0,0,0,.188-.3l-1.209-6.062A.256.256,0,0,0,775.3,555.105Zm-1.43.285L766.8,556.8l-.166-.83a.724.724,0,0,1,.541-.868l5.69-1.135a.726.726,0,0,1,.833.595Z" transform="translate(-765.184 -553.654)" fill="#ffbe55"/>
            <g id="Grupo_3" data-name="Grupo 3" transform="translate(0.121 2.023)">
              <path id="Caminho_4" data-name="Caminho 4" d="M772.731,579.414l-1.185.236-5.026-1.574.033-.048,5.005,1.568,1.14-.227L776.719,576l.049.032Z" transform="translate(-766.52 -576)" fill="#fff"/>
            </g>
          </g>
          <path id="Caminho_5" data-name="Caminho 5" d="M508.668,462.145s-1.091-.359-1.306-.234a16.727,16.727,0,0,0-1.323,1.616l1.484.708,1.68-1.09Z" transform="translate(-506.04 -440.052)" fill="#fcd2b1"/>
          <path id="Caminho_6" data-name="Caminho 6" d="M803.856,544.981s.889,1.8.7,2.123-2.2.684-2.2.684l-.539-1.807.961-1h1.076Z" transform="translate(-775.041 -515.624)" fill="#fcd2b1"/>
          <path id="Caminho_7" data-name="Caminho 7" d="M606.711,864.43l-4.691,1.522h5.71V864.43Z" transform="translate(-593.33 -806.152)" fill="#0a3951"/>
          <path id="Caminho_8" data-name="Caminho 8" d="M739.2,864.43l-4.284,1.522h5.662l-.291-1.522Z" transform="translate(-714.198 -806.152)" fill="#0a3951"/>
          <path id="Caminho_9" data-name="Caminho 9" d="M650.481,515.1l-2.961,31.88h1.909s4.54-13.233,3.025-14.984c.487-2.168,3.588-10.759,2.872-11.676s-2.029-5.706-2.029-5.706Z" transform="translate(-634.711 -488.003)" fill="#083047"/>
          <path id="Caminho_10" data-name="Caminho 10" d="M688.02,513.008l1.539,2.12,6.347,28.9h2.016s.167-14.5-1.278-16.329c-.578-3.276-.851-14.418-1.277-15.639-1.927-.1-6.985-.69-6.985-.69Z" transform="translate(-671.544 -485.057)" fill="#0a3951"/>
          <path id="Caminho_11" data-name="Caminho 11" d="M559.5,336.992c-.983-1.545-3.832-1.4-6.009-1.607-.63-.059-1.156-.324-1.6-.385l-2.963.893a23.91,23.91,0,0,0-2.824.375c-.033.038-2.612,9.113-11.227,10.321a7.907,7.907,0,0,1,0,1.539s8.872.257,11.66-4.94a50.32,50.32,0,0,0,1.5,8.558l8.148.359s.42-8.684,1.325-10.676c4.708,2.988,2.082,12.856,2.082,12.856a2.993,2.993,0,0,0,1.539,0C563.842,347.4,560.764,338.984,559.5,336.992Z" transform="translate(-532.26 -324.655)" fill="#fff"/>
          <path id="Caminho_12" data-name="Caminho 12" d="M702.02,334.014l.949,1.354,1.923-2.927-.7-.442Z" transform="translate(-684.276 -321.926)" fill="#f2f2f2"/>
          <path id="Caminho_13" data-name="Caminho 13" d="M689.288,340.608l-.3,1.354-.972-2.081.362-.632Z" transform="translate(-671.544 -328.52)" fill="#f2f2f2"/>
          <path id="Caminho_14" data-name="Caminho 14" d="M692.172,355.25l.2.613-.961,10.6a46.944,46.944,0,0,0,1.309,4.585c.082-.3,1.285-4.189,1.285-4.189l-1.095-10.978.1-.635-.634-1Z" transform="translate(-674.627 -342.153)" fill="#ffbe55"/>
          <g id="Grupo_6" data-name="Grupo 6" transform="translate(12.585 0)">
            <path id="Caminho_15" data-name="Caminho 15" d="M693.319,246.32a3.672,3.672,0,0,1,1,3.712c-.453,1-1.63,1.539-2.082,2.082a9.1,9.1,0,0,0-2.173-1.811l.634-2.716,1.267-.634Z" transform="translate(-685.984 -244.003)" fill="#0e538c"/>
            <path id="Caminho_16" data-name="Caminho 16" d="M692.06,291.072v2.354l.905,1.358,2.173-2.014-.86-4.169Z" transform="translate(-687.803 -282.456)" fill="#fcd2b1"/>
            <path id="Caminho_17" data-name="Caminho 17" d="M658.23,250.034c.254,2.817-1.094,5.545.423,6.4.339.426,3.746.9,4.169-.384s1.5-4.909.654-6.019S658.23,250.034,658.23,250.034Z" transform="translate(-656.754 -246.933)" fill="#ffe3ca"/>
            <path id="Caminho_18" data-name="Caminho 18" d="M704.4,258.32c-.181.724,0,2.082.724,2.263,0,.346-.037.95-.063,1.342a.389.389,0,0,0,.367.415c.17.009.33.007.33-.036,0-.091.543-3.984.543-3.984Z" transform="translate(-698.97 -254.917)" fill="#0e538c"/>
            <ellipse id="Elipse_3" data-name="Elipse 3" cx="0.996" cy="0.604" rx="0.996" ry="0.604" transform="translate(6.066 7.042) rotate(-74.984)" fill="#ffe3ca"/>
            <path id="Caminho_19" data-name="Caminho 19" d="M713.151,276.863l-.091,1.63.453.091.181-2.263Z" transform="translate(-706.902 -271.287)" fill="#0e538c"/>
            <g id="Grupo_5" data-name="Grupo 5">
              <path id="Caminho_20" data-name="Caminho 20" d="M652.412,224.308a24.727,24.727,0,0,1-4.578.661,3.025,3.025,0,0,1-2.262-.536,1.84,1.84,0,0,1-.456-1.816,2.487,2.487,0,0,1,1.238-1.464,3.908,3.908,0,0,1,1.9-.416.412.412,0,0,0-.416.493.689.689,0,0,0,.529.487,2.32,2.32,0,0,0,.755.014,5.837,5.837,0,0,1,1.89.12,2.287,2.287,0,0,1,1.518,1.053,1.23,1.23,0,0,1-.44,1.646" transform="translate(-645.045 -220.733)" fill="#0e538c"/>
            </g>
          </g>
        </g>
        <path id="Caminho_21" data-name="Caminho 21" d="M56.333,881.24h85.445a1.173,1.173,0,0,1,1.173,1.173v6.232a1.173,1.173,0,0,1-1.173,1.173H56.333a1.173,1.173,0,0,1-1.173-1.173v-6.232A1.173,1.173,0,0,1,56.333,881.24Z" transform="translate(-52.804 -816.318)" fill="#f2f2f2"/>
        <g id="Grupo_10" data-name="Grupo 10" transform="translate(15.835 6.073)">
          <path id="Caminho_22" data-name="Caminho 22" d="M500.446,462.145s1.092-.359,1.306-.234a16.866,16.866,0,0,1,1.323,1.616l-1.484.708-1.68-1.09Z" transform="translate(-473.123 -441.004)" fill="#fcd2b1"/>
          <path id="Caminho_23" data-name="Caminho 23" d="M209.274,544.99s-.889,2.653-.7,3.127,2.2,1.008,2.2,1.008l-.187-2.067.515.822.234-.822-.983-2.067h-1.077Z" transform="translate(-208.138 -516.585)" fill="#fcd2b1"/>
          <path id="Caminho_24" data-name="Caminho 24" d="M376.83,864.43l4.691,1.522H375.81V864.43Z" transform="translate(-360.258 -807.104)" fill="#0a3951"/>
          <path id="Caminho_25" data-name="Caminho 25" d="M244.828,864.43l4.284,1.522H243.45l.291-1.522Z" transform="translate(-239.882 -807.104)" fill="#0a3951"/>
          <path id="Caminho_26" data-name="Caminho 26" d="M310.719,515.478l3.174,31.5h-1.909s-4.54-13.233-3.025-14.984c-.487-2.168-3.588-10.759-2.872-11.676s2.029-5.706,2.029-5.706Z" transform="translate(-296.751 -488.955)" fill="#083047"/>
          <path id="Caminho_27" data-name="Caminho 27" d="M253.362,513.008l-1.539,2.12-6.347,28.9H243.46s-.167-14.5,1.277-16.329c.578-3.276.938-14.691,2-15.462,1.927-.1,6.264-.867,6.264-.867Z" transform="translate(-239.886 -486.009)" fill="#0a3951"/>
          <path id="Caminho_28" data-name="Caminho 28" d="M218.162,354.911l-1.992-4.346-3.984,4.346-1.811-3.259s-.724-9.325-1.63-11.317c-4.708,2.988-2.082,12.856-2.082,12.856a2.993,2.993,0,0,1-1.539,0c-2.716-6.881.362-15.3,1.63-17.293.983-1.545,3.871-1.891,6.048-2.1.63-.059,1.517.446,1.965.386a14.472,14.472,0,0,1,3.744.41h0a8.44,8.44,0,0,1,1.641.575C220.7,335.807,218.162,354.911,218.162,354.911Z" transform="translate(-204.038 -324.513)" fill="#0e538c"/>
          <path id="Caminho_29" data-name="Caminho 29" d="M373.176,349A13.157,13.157,0,0,0,384.4,359.321a7.913,7.913,0,0,0,0,1.539s-9.325.272-11.86-5.342C371.727,350.177,373.176,349,373.176,349Z" transform="translate(-357.06 -338.339)" fill="#0e538c"/>
          <path id="Caminho_30" data-name="Caminho 30" d="M306.044,332.827,304.326,343.6l-3.486-11.433c.63-.059,1.2-.107,1.648-.167Z" transform="translate(-292.076 -322.878)" fill="#fff"/>
          <g id="Grupo_9" data-name="Grupo 9" transform="translate(8.863)">
            <path id="Caminho_31" data-name="Caminho 31" d="M303.109,243.67a3.672,3.672,0,0,0-1,3.712c.453,1,1.63,1.539,2.082,2.082a9.1,9.1,0,0,1,2.173-1.811l-.634-2.716-1.268-.634Z" transform="translate(-301.937 -242.546)" fill="#0e538c"/>
            <path id="Caminho_32" data-name="Caminho 32" d="M317.958,288.422v2.354l-.905,1.358-2.173-2.014.86-4.169Z" transform="translate(-313.708 -280.998)" fill="#fcd2b1"/>
            <path id="Caminho_33" data-name="Caminho 33" d="M324.145,247.415c-.272,2.988-.091,6.338-.453,6.79s-3.984.453-4.436-.905-1.63-4.708-.724-5.885S324.145,247.415,324.145,247.415Z" transform="translate(-316.726 -245.476)" fill="#ffe3ca"/>
            <path id="Caminho_34" data-name="Caminho 34" d="M316.781,255.67c.181.724,0,2.082-.724,2.263,0,.346.037.95.063,1.342a.389.389,0,0,1-.367.415c-.17.009-.331.007-.331-.036,0-.091-.543-3.984-.543-3.984Z" transform="translate(-313.708 -253.459)" fill="#0e538c"/>
            <ellipse id="Elipse_4" data-name="Elipse 4" cx="0.604" cy="0.996" rx="0.604" ry="0.996" transform="translate(0.761 4.243) rotate(-15.016)" fill="#ffe3ca"/>
            <path id="Caminho_35" data-name="Caminho 35" d="M321.423,274.213l.091,1.63-.453.091-.181-2.263Z" transform="translate(-319.165 -269.829)" fill="#0e538c"/>
            <g id="Grupo_8" data-name="Grupo 8" transform="translate(0.359)">
              <path id="Caminho_36" data-name="Caminho 36" d="M308.191,233.592a2.528,2.528,0,0,0,1.868.524,15.525,15.525,0,0,1,1.542-.308,10.109,10.109,0,0,1,1.2.147,2.111,2.111,0,0,0,1.337-.277,1.326,1.326,0,0,0,.634-1.164,1.5,1.5,0,0,0-1.311-1.233,4.32,4.32,0,0,0-1.907.263,4.512,4.512,0,0,1-1.9.28c-.448-.065-.867-.267-1.315-.341a2.392,2.392,0,0,0-1.435.208,1.872,1.872,0,0,0-.816.733,1.3,1.3,0,0,0-.112,1.073,1.337,1.337,0,0,0,.669.713,2.094,2.094,0,0,0,.972.195Z" transform="translate(-305.897 -231.25)" fill="#0e538c"/>
            </g>
          </g>
          <path id="Caminho_37" data-name="Caminho 37" d="M310.041,334.014l-.948,1.354-1.923-2.927.7-.442Z" transform="translate(-297.833 -322.878)" fill="#f2f2f2"/>
          <path id="Caminho_38" data-name="Caminho 38" d="M338.88,340.608l.3,1.354.973-2.081-.363-.632Z" transform="translate(-326.672 -329.472)" fill="#f2f2f2"/>
          <path id="Caminho_39" data-name="Caminho 39" d="M323.827,355.161l-.2.553.822,3.226s-.7,5.166-.781,4.9l-1.559-5.115.981-2.993-.1-.572.634-.905Z" transform="translate(-311.42 -343.114)" fill="#ffbe55"/>
        </g>
        <path id="Caminho_40" data-name="Caminho 40" d="M507.8,475.759c.175-.244.7-.9.7-.9l1.329.9-.909.595Z" transform="translate(-464.463 -446.731)" fill="#ffe3ca"/>
        <path id="Caminho_41" data-name="Caminho 41" d="M513.2,461.14a4,4,0,0,0-1.138-.359c-.457-.029-1.059.622-1.059.622s.019.117.263.117a2.517,2.517,0,0,0,.729-.234l1.227.514Z" transform="translate(-467.374 -433.925)" fill="#ffe3ca"/>
        <g id="Grupo_11" data-name="Grupo 11" transform="translate(66.023)">
          <path id="Caminho_42" data-name="Caminho 42" d="M772.763,164.17H762.187a3.817,3.817,0,0,0-3.807,3.8h0a3.813,3.813,0,0,0,2.054,3.373l-.231,1.086a16.733,16.733,0,0,1,1.984-.655h10.576a3.817,3.817,0,0,0,3.807-3.8h0A3.817,3.817,0,0,0,772.763,164.17Z" transform="translate(-758.38 -164.17)" fill="#2a94f4"/>
          <path id="Caminho_43" data-name="Caminho 43" d="M782.513,175.1H771.937a3.817,3.817,0,0,0-3.807,3.8h0a3.813,3.813,0,0,0,2.054,3.373l-.231,1.086a16.733,16.733,0,0,1,1.984-.655h10.576a3.817,3.817,0,0,0,3.807-3.8h0A3.817,3.817,0,0,0,782.513,175.1Z" transform="translate(-767.247 -174.11)" fill="none" stroke="#2a94f4" stroke-miterlimit="10" stroke-width="0.091"/>
        </g>
        <g id="Grupo_12" data-name="Grupo 12" transform="translate(10.301 2.732)">
          <path id="Caminho_44" data-name="Caminho 44" d="M158.857,194.34H147.295a.878.878,0,0,0-.875.875v5.433a.878.878,0,0,0,.875.875h8.728l1.62,1.207-.682-1.207h1.9a.878.878,0,0,0,.875-.875v-5.433A.878.878,0,0,0,158.857,194.34Z" transform="translate(-146.103 -194.34)" fill="#cce9ff"/>
          <path id="Caminho_45" data-name="Caminho 45" d="M155.358,200.56H143.795a.878.878,0,0,0-.875.875v5.433a.878.878,0,0,0,.875.875h8.728l1.62,1.207-.682-1.207h1.9a.877.877,0,0,0,.875-.875v-5.433A.878.878,0,0,0,155.358,200.56Z" transform="translate(-142.92 -199.997)" fill="none" stroke="#cce9ff" stroke-miterlimit="10" stroke-width="0.091"/>
        </g>
        <g id="Grupo_14" data-name="Grupo 14" transform="translate(0 41.111)">
          <path id="Caminho_46" data-name="Caminho 46" d="M92.051,822.273c1.963,0,2.791-1.567,3.117-3.23a13.584,13.584,0,0,0,.1-3.872h-6.43s-.01.076-.024.212C88.692,816.563,88.3,822.273,92.051,822.273Z" transform="translate(-83.344 -797.342)" fill="#b6e7ff"/>
          <path id="Caminho_47" data-name="Caminho 47" d="M89.8,812.614a10.39,10.39,0,0,0,3.216.254,10.4,10.4,0,0,0,3.216-.254,10.39,10.39,0,0,0-3.216-.254A10.39,10.39,0,0,0,89.8,812.614Z" transform="translate(-84.308 -794.786)" fill="#85ddff"/>
          <path id="Caminho_48" data-name="Caminho 48" d="M29.14,618.252s3.392,5.16,5.426,8.309,2.568,3.8,2.809,4.82.46,4.771.46,4.771h.15s-.053-3.187-.235-4.259a6.6,6.6,0,0,1,.158-2.5c.146-1.09.34-2.834-.763-4.045s-.811-2.4-1.2-3.2-3.392-1.768-3.779-2.592S30.085,618.227,29.14,618.252Z" transform="translate(-29.14 -618.251)" fill="#2a94f4"/>
          <path id="Caminho_49" data-name="Caminho 49" d="M29.14,618.26a10.03,10.03,0,0,0,1.793,1.623c.727.412,1.066.048,1.622,1.041s.579,1.43,1.088,1.938,1.115.533,1.164,1.647a6.8,6.8,0,0,1-.242,2.059S29.358,618.526,29.14,618.26Z" transform="translate(-29.14 -618.259)" fill="#41aaf7"/>
          <path id="Caminho_50" data-name="Caminho 50" d="M47.316,735.272h-.152a3.187,3.187,0,0,0-.455-1.532,9.874,9.874,0,0,0-2.5-1.13,10.373,10.373,0,0,1-1.676-.8c-1.29-.819-2.52-3.459-2.625-3.93a1.586,1.586,0,0,1-.053-.331v0c0-.127.065-.146.174-.273.053-.062.209-.041.4.018a2.3,2.3,0,0,1,1.316,1.054,2.434,2.434,0,0,0,1.226,1.189c.911.243.835.394,1.171,1.32s1.182,1.077,2.244,2.169A2.968,2.968,0,0,1,47.316,735.272Z" transform="translate(-38.889 -717.371)" fill="#2a94f4"/>
          <path id="Caminho_51" data-name="Caminho 51" d="M44.213,735.749a10.362,10.362,0,0,1-1.676-.8c-1.29-.819-2.52-3.459-2.625-3.93a1.585,1.585,0,0,1-.053-.331c0,.031.063.449.736.727.7.288.834.288.925.728s.167.911.531,1,.592-.319.879.349.426.9.691.986.466-.045.525.471C44.183,735.267,44.2,735.565,44.213,735.749Z" transform="translate(-38.889 -720.51)" fill="#41aaf7"/>
          <path id="Caminho_52" data-name="Caminho 52" d="M134.472,665.974h.18s.352-6.387.837-6.98a7.761,7.761,0,0,1,2.659-1.59,12.384,12.384,0,0,0,1.985-.944c1.528-.971,2.984-4.1,3.109-4.655a1.856,1.856,0,0,0,.062-.393v0c0-.15-.078-.173-.206-.323-.062-.073-.248-.048-.475.022a2.724,2.724,0,0,0-1.559,1.249,2.881,2.881,0,0,1-1.452,1.408c-1.078.288-.989.467-1.387,1.564s-1.4,1.276-2.657,2.57S134.472,665.974,134.472,665.974Z" transform="translate(-124.929 -648.073)" fill="#2a94f4"/>
          <path id="Caminho_53" data-name="Caminho 53" d="M175.14,661.113a12.384,12.384,0,0,0,1.985-.944c1.528-.971,2.984-4.1,3.109-4.655a1.859,1.859,0,0,0,.062-.393c0,.037-.075.531-.871.86-.826.34-.988.34-1.1.863s-.2,1.078-.629,1.186-.7-.378-1.042.413-.5,1.06-.818,1.168-.552-.054-.622.558C175.175,660.541,175.152,660.9,175.14,661.113Z" transform="translate(-161.922 -651.782)" fill="#41aaf7"/>
          <g id="Grupo_13" data-name="Grupo 13" transform="translate(5.396 18.04)">
            <path id="Caminho_54" data-name="Caminho 54" d="M92.051,824.4c1.963,0,2.791-1.567,3.117-3.23a21.146,21.146,0,0,1-6.357-3.66C88.692,818.691,88.3,824.4,92.051,824.4Z" transform="translate(-88.74 -817.51)" fill="#cce9ff"/>
          </g>
        </g>
        <g id="Grupo_16" data-name="Grupo 16" transform="translate(76.976 47.446)">
          <path id="Caminho_55" data-name="Caminho 55" d="M934.425,849.042c1.3,0,1.847-1.038,2.063-2.138a9.017,9.017,0,0,0,.065-2.563H932.3s-.006.051-.016.14C932.2,845.263,931.946,849.042,934.425,849.042Z" transform="translate(-927.446 -830.206)" fill="#b6e7ff"/>
          <path id="Caminho_56" data-name="Caminho 56" d="M932.93,842.658a13.536,13.536,0,0,0,4.257,0,13.536,13.536,0,0,0-4.257,0Z" transform="translate(-928.079 -828.523)" fill="#85ddff"/>
          <path id="Caminho_57" data-name="Caminho 57" d="M879.35,688.223s2.687,4.088,4.3,6.583,2.034,3.013,2.226,3.819.365,3.781.365,3.781h.211a16.338,16.338,0,0,0-.115-3.339,3.764,3.764,0,0,1-.038-2.015,3.883,3.883,0,0,0-.6-3.205c-.873-.96-.643-1.9-.95-2.533s-2.687-1.4-2.994-2.053S880.1,688.2,879.35,688.223Z" transform="translate(-879.35 -688.223)" fill="#2a94f4"/>
          <path id="Caminho_58" data-name="Caminho 58" d="M885.84,688.23a7.943,7.943,0,0,0,1.421,1.286c.576.326.845.038,1.286.825s.458,1.133.863,1.536.884.422.923,1.3a5.408,5.408,0,0,1-.192,1.631S886.013,688.441,885.84,688.23Z" transform="translate(-885.253 -688.229)" fill="#41aaf7"/>
          <path id="Caminho_59" data-name="Caminho 59" d="M963.742,740.722l.154-.046a3.364,3.364,0,0,1,0-1.689,10.4,10.4,0,0,1,2.184-1.9,11.028,11.028,0,0,0,1.455-1.315c1.057-1.22,1.5-4.265,1.465-4.774a1.636,1.636,0,0,0-.047-.351v0c-.041-.128-.11-.128-.259-.224-.072-.047-.224.023-.4.14a2.436,2.436,0,0,0-1.013,1.466,2.569,2.569,0,0,1-.88,1.574c-.847.522-.725.652-.785,1.691s-.869,1.449-1.612,2.876A3.133,3.133,0,0,0,963.742,740.722Z" transform="translate(-955.959 -726.587)" fill="#2a94f4"/>
          <path id="Caminho_60" data-name="Caminho 60" d="M989.13,739.491a11.038,11.038,0,0,0,1.455-1.315c1.057-1.22,1.5-4.265,1.465-4.774a1.644,1.644,0,0,0-.047-.351c.005.033.071.474-.524.959-.618.5-.757.544-.715,1.018s.107.972-.234,1.175-.7-.143-.784.619-.159,1.035-.4,1.208-.485.095-.389.635C989.014,738.993,989.085,739.3,989.13,739.491Z" transform="translate(-979.013 -728.992)" fill="#41aaf7"/>
          <g id="Grupo_15" data-name="Grupo 15" transform="translate(4.788 14.275)">
            <path id="Caminho_61" data-name="Caminho 61" d="M934.426,850.451c1.3,0,1.847-1.037,2.063-2.138a13.988,13.988,0,0,1-4.207-2.423C932.2,846.672,931.946,850.451,934.426,850.451Z" transform="translate(-932.234 -845.89)" fill="#cce9ff"/>
          </g>
        </g>
      </g>
    </g>
    <path id="Caminho_362" data-name="Caminho 362" d="M829.289,549.117c16.913-3.639-8.588-10.643,0-10.862,13.671-.35,17.066,5.639,17.066,5.639l22.539-5.639-5.855,5.639,28.184-5.639-8.09,5.639,38.3-5.639s-20.348,9.641-9.66,8.443,52.313-8.443,52.313-8.443,2.188,5.661,0,5.639,16.289,0,16.289,0v-5.639h17.43l-5.855,8.443s35.832-8.319,35.828-6.633,0,3.829,0,3.829l24.684-8.355-9.031,11.159" transform="translate(-667.966 -210.484)" fill="#2c4ca3"/>
    <rect id="Retângulo_14" data-name="Retângulo 14" width="194" height="41" rx="11" transform="translate(439 32)" fill="#a7beff"/>
    <rect id="Retângulo_15" data-name="Retângulo 15" width="261" height="41" rx="11" transform="translate(372 111)" fill="#ceffd6"/>
    <rect id="Retângulo_16" data-name="Retângulo 16" width="177" height="41" rx="11" transform="translate(456 190)" fill="#fffabf"/>
    <text id="SITES" transform="translate(512 59)" fill="#344c8e" font-size="15" font-family="Arial-Black, Arial Black" font-weight="800"><tspan x="0" y="0">SITES</tspan></text>
    <text id="LOJAS_E-COMMERCE" data-name="LOJAS E-COMMERCE" transform="translate(417 138)" fill="#378b1d" font-size="15" font-family="Arial-Black, Arial Black" font-weight="800"><tspan x="0" y="0">LOJAS E-COMMERCE</tspan></text>
    <text id="DESIGN" transform="translate(513 216)" fill="#8b7709" font-size="15" font-family="Arial-Black, Arial Black" font-weight="800"><tspan x="0" y="0">DESIGN</tspan></text>
    <g id="ecommerce-add-to-cart" transform="translate(395.28 132)">
      <g id="ecommerce-add-to-cart-2" data-name="ecommerce-add-to-cart" transform="translate(-10.781 -9)">
        <ellipse id="Elipse_21" data-name="Elipse 21" cx="1.527" cy="1.527" rx="1.527" ry="1.527" transform="translate(4.901 14.945)" fill="#0b4870"/>
        <ellipse id="Elipse_22" data-name="Elipse 22" cx="1.527" cy="1.527" rx="1.527" ry="1.527" transform="translate(15.919 14.945)" fill="#0b4870"/>
        <path id="Caminho_363" data-name="Caminho 363" d="M90.853,97.547a.674.674,0,0,1-.674.674H78.9a.746.746,0,0,1-.708-.505l-.012-.036-.256-.806L74.6,86.426l-.149-.47a.674.674,0,0,1,1.285-.409l.123.385.434,1.363.429,1.348,2.194,6.891.273.856a.742.742,0,0,0,.605.483H90.179A.674.674,0,0,1,90.853,97.547Z" transform="translate(-71.821 -83.567)" fill="#d3d3d3"/>
        <path id="Caminho_364" data-name="Caminho 364" d="M123.895,140.047v4.707a1.765,1.765,0,0,1-1.764,1.766H111.959l-2.194-6.891h13.954a.686.686,0,0,0,.124-.011A1.771,1.771,0,0,1,123.895,140.047Z" transform="translate(-104.864 -134.553)" fill="#2a94f4"/>
        <path id="Caminho_365" data-name="Caminho 365" d="M38.882,84.63a.675.675,0,0,1-.674.674H35.231a.675.675,0,0,1-.674-.674.675.675,0,0,1,.674-.674h2.977A.675.675,0,0,1,38.882,84.63Z" transform="translate(-34.557 -82.518)" fill="#0e538c"/>
        <g id="Grupo_104" data-name="Grupo 104" transform="translate(7.611 6.178)">
          <g id="Grupo_102" data-name="Grupo 102" transform="translate(5.818)">
            <path id="Caminho_366" data-name="Caminho 366" d="M241.982,157.368v3.268a.675.675,0,0,1-.674.674.675.675,0,0,1-.674-.674v-3.268a.673.673,0,0,1,1.15-.476A.667.667,0,0,1,241.982,157.368Z" transform="translate(-240.634 -156.694)" fill="#0e538c"/>
          </g>
          <g id="Grupo_103" data-name="Grupo 103">
            <path id="Caminho_367" data-name="Caminho 367" d="M152.695,157.368v3.268a.674.674,0,0,1-.674.674.675.675,0,0,1-.674-.674v-3.268a.674.674,0,0,1,1.348,0Z" transform="translate(-151.347 -156.694)" fill="#0e538c"/>
            <path id="Caminho_368" data-name="Caminho 368" d="M196.667,157.368v3.268a.674.674,0,0,1-1.151.476.666.666,0,0,1-.2-.476v-3.268a.673.673,0,0,1,1.15-.476A.667.667,0,0,1,196.667,157.368Z" transform="translate(-192.454 -156.694)" fill="#0e538c"/>
            <path id="Caminho_369" data-name="Caminho 369" d="M288.642,157.368v3.268a.673.673,0,0,1-1.15.476.666.666,0,0,1-.2-.476v-3.268a.674.674,0,0,1,1.348,0Z" transform="translate(-278.435 -156.694)" fill="#0e538c"/>
          </g>
        </g>
        <path id="Caminho_370" data-name="Caminho 370" d="M130.138,274.616a.675.675,0,0,1,.017.953l-1.2,1.246a.675.675,0,0,1-.953.017.675.675,0,0,1-.017-.953l1.2-1.246A.675.675,0,0,1,130.138,274.616Z" transform="translate(-121.719 -260.577)" fill="#0e538c"/>
        <path id="Caminho_371" data-name="Caminho 371" d="M293.411,274.428a.675.675,0,0,1,.684.664l.025,1.731a.674.674,0,0,1-.664.684.675.675,0,0,1-.684-.664l-.025-1.731A.674.674,0,0,1,293.411,274.428Z" transform="translate(-275.922 -260.578)" fill="#0e538c"/>
        <path id="Caminho_372" data-name="Caminho 372" d="M118.234,119.785a.675.675,0,0,1-.55.663.688.688,0,0,1-.124.011H103.606l-.429-1.347h14.384A.674.674,0,0,1,118.234,119.785Z" transform="translate(-98.705 -115.382)" fill="#0e538c"/>
        <circle id="Elipse_23" data-name="Elipse 23" cx="3.147" cy="3.147" r="3.147" transform="translate(15.268)" fill="#ffbe55"/>
        <path id="Caminho_373" data-name="Caminho 373" d="M293.968,85.278a.543.543,0,0,1-.541.542h-.654v.654a.541.541,0,0,1-.541.541.543.543,0,0,1-.541-.541V85.82h-.654a.542.542,0,0,1-.541-.542.542.542,0,0,1,.541-.541h.654v-.653a.541.541,0,0,1,.541-.541.543.543,0,0,1,.542.541v.654h.654A.542.542,0,0,1,293.968,85.278Z" transform="translate(-273.817 -82.131)" fill="#f7f7f7"/>
      </g>
    </g>
    <g id="Designer" transform="translate(488.984 212.733)">
      <g id="Designer-2" data-name="Designer" transform="translate(-13.516 -13.233)">
        <path id="Caminho_415" data-name="Caminho 415" d="M86.218,113.166a6.937,6.937,0,0,0,9.542,3.446c2.113-1.007,3.752-3.1,5.9-4.041,2.41-1.065,5.1-1.911,7-4.123a10.7,10.7,0,0,0,2.212-8.9c-.792-3.677-4.086-4.532-6.872-6.026-11.428-6.125-24.111-1.7-18.626,15.461C85.83,110.417,85.657,111.965,86.218,113.166Z" transform="translate(-84.053 -90.904)" fill="#cce9ff"/>
        <path id="Caminho_416" data-name="Caminho 416" d="M566.771,247l-1.688.239-.483,1.449.483.483,1.449-.483Zm0,0" transform="translate(-544.767 -240.558)" fill="#f7f7f7"/>
        <path id="Caminho_417" data-name="Caminho 417" d="M566.35,273.211a.169.169,0,0,1,0-.239l.722-.722a.169.169,0,1,1,.239.239l-.722.722a.169.169,0,0,1-.239,0Zm0,0" transform="translate(-546.397 -264.718)" fill="#d3d3d3"/>
        <path id="Caminho_418" data-name="Caminho 418" d="M583.182,265.682a.341.341,0,1,1,0-.483.344.344,0,0,1,0,.483Zm0,0" transform="translate(-562.024 -257.911)" fill="#d3d3d3"/>
        <path id="Caminho_419" data-name="Caminho 419" d="M541.2,288.287v.239l.722.722h.239l.483-.966-.483-.483Zm0,0" transform="translate(-522.333 -279.674)" fill="#ffbe55"/>
        <path id="Caminho_420" data-name="Caminho 420" d="M499.6,229.4l.149.272.966.239.223-.239-.2-.739.1-.5-.669-.136-.1.5Zm0,0" transform="translate(-482.449 -222.629)" fill="#0e538c"/>
        <path id="Caminho_421" data-name="Caminho 421" d="M513.5,208.838l.669.136.136-.669-.636-.305Zm0,0" transform="translate(-495.776 -203.167)" fill="#2a94f4"/>
        <path id="Caminho_422" data-name="Caminho 422" d="M476.418,260.485a.685.685,0,0,1-.532-.8l.966-4.68,1.337.277-.962,4.676a.686.686,0,0,1-.809.532Zm0,0" transform="translate(-459.701 -248.227)" fill="#0b4870"/>
        <path id="Caminho_423" data-name="Caminho 423" d="M480.537,299.6l.966.966-2.41,2.41a.683.683,0,0,1-.966-.966Zm0,0" transform="translate(-461.669 -290.987)" fill="#ffbe55"/>
        <path id="Caminho_424" data-name="Caminho 424" d="M570,330.527l.925-.227.33,1.325-.924.227Zm0,0" transform="translate(-549.944 -320.42)" fill="#0e538c"/>
        <path id="Caminho_425" data-name="Caminho 425" d="M595.376,316.162l-1.374-.5a1.261,1.261,0,0,0-.73-.037,1.231,1.231,0,0,0-.516.264l-.355.3.326,1.325.454.1a1.275,1.275,0,0,0,1.213-.384Zm0,0" transform="translate(-571.419 -306.319)" fill="#f7f7f7"/>
        <path id="Caminho_426" data-name="Caminho 426" d="M612.906,330.422l-.549-.347a1.033,1.033,0,0,0-1.1.012.173.173,0,0,0-.054.235.187.187,0,0,0,.025.029.169.169,0,0,0,.211.025.685.685,0,0,1,.735-.008l.5.314Zm0,0" transform="translate(-589.424 -320.059)" fill="#d3d3d3"/>
        <path id="Caminho_427" data-name="Caminho 427" d="M479.5,335.2l.33,1.325-3.479.863a.682.682,0,1,1-.326-1.325Zm0,0" transform="translate(-459.353 -325.117)" fill="#2a94f4"/>
        <path id="Caminho_428" data-name="Caminho 428" d="M239.873,262.044l-1.837,1.048-1.837-1.048L238.037,261Zm0,0" transform="translate(-229.921 -253.98)" fill="#ffbe55"/>
        <path id="Caminho_429" data-name="Caminho 429" d="M238.037,296.552,236.9,295.9l-.7.4,1.837,1.048,1.837-1.048-.7-.4Zm0,0" transform="translate(-229.921 -287.439)" fill="#2a94f4"/>
        <path id="Caminho_430" data-name="Caminho 430" d="M238.037,315.752,236.9,315.1l-.7.4,1.837,1.048,1.837-1.048-.7-.4Zm0,0" transform="translate(-229.921 -305.847)" fill="#0e538c"/>
        <g id="Grupo_125" data-name="Grupo 125" transform="translate(10.134 9.897)">
          <path id="Caminho_431" data-name="Caminho 431" d="M334.454,502.959H329.98a.379.379,0,0,1-.38-.38h0a.379.379,0,0,1,.38-.38h4.474a.379.379,0,0,1,.38.38h0A.376.376,0,0,1,334.454,502.959Z" transform="translate(-329.6 -495.122)" fill="#d3d3d3"/>
          <g id="Grupo_124" data-name="Grupo 124" transform="translate(1.328 7.59)">
            <rect id="Retângulo_17" data-name="Retângulo 17" width="0.38" height="3.851" transform="translate(0.36 5.017) rotate(-90)" fill="#0e538c"/>
            <path id="Caminho_432" data-name="Caminho 432" d="M362.5,627.28a.362.362,0,1,1-.417-.3A.361.361,0,0,1,362.5,627.28Z" transform="translate(-361.777 -622.339)" fill="#0e538c"/>
            <rect id="Retângulo_18" data-name="Retângulo 18" width="0.38" height="4.792" transform="translate(2.077)" fill="#0e538c"/>
            <path id="Caminho_433" data-name="Caminho 433" d="M455.8,627.28a.362.362,0,1,1-.417-.3A.361.361,0,0,1,455.8,627.28Z" transform="translate(-451.227 -622.339)" fill="#0e538c"/>
          </g>
          <path id="Caminho_434" data-name="Caminho 434" d="M367.417,338.538h-4.23a.437.437,0,0,1-.413-.565l2.018-6.958a.432.432,0,0,1,.413-.314h4.226a.437.437,0,0,1,.413.565l-2.014,6.959A.432.432,0,0,1,367.417,338.538Z" transform="translate(-361.387 -330.7)" fill="#d3d3d3"/>
          <path id="Caminho_435" data-name="Caminho 435" d="M366.068,338.538h-3.681a.437.437,0,0,1-.413-.565l2.018-6.958a.432.432,0,0,1,.413-.314h3.681a.437.437,0,0,1,.413.565l-2.018,6.959A.432.432,0,0,1,366.068,338.538Z" transform="translate(-360.62 -330.7)" fill="#f2f2f2"/>
          <path id="Caminho_436" data-name="Caminho 436" d="M362.854,502.959H358.38a.379.379,0,0,1-.38-.38h0a.379.379,0,0,1,.38-.38h4.474a.379.379,0,0,1,.38.38h0A.376.376,0,0,1,362.854,502.959Z" transform="translate(-356.828 -495.122)" fill="#d3d3d3"/>
        </g>
        <path id="Caminho_437" data-name="Caminho 437" d="M366.616,377.5l-.916,2.637.215.52,1.234-.235.351-2.823Z" transform="translate(-354.076 -365.671)" fill="#ffe3ca"/>
        <path id="Caminho_438" data-name="Caminho 438" d="M380.783,346.4a2.272,2.272,0,0,0-.883,1.762l.958.57Z" transform="translate(-367.69 -335.855)" fill="#2a94f4"/>
        <path id="Caminho_439" data-name="Caminho 439" d="M379.912,331.5l-1.238.52-.974,4.342,3.265,1.288L382.7,332.7s-.285-1.036-1.915-1.3Z" transform="translate(-365.581 -321.474)" fill="#2a94f4"/>
        <path id="Caminho_440" data-name="Caminho 440" d="M464.386,353.744c0-.058-.037-.4-.05-.454l-.537-3.442a.723.723,0,1,0-1.387.4l.64,2.955Z" transform="translate(-446.756 -338.618)" fill="#ffe3ca"/>
        <path id="Caminho_441" data-name="Caminho 441" d="M404.722,432.885l-3.64-.285-.182.648,3.5,1.185a.8.8,0,0,0,1.048-.809h0A.8.8,0,0,0,404.722,432.885Z" transform="translate(-387.823 -418.497)" fill="#ffe3ca"/>
        <path id="Caminho_442" data-name="Caminho 442" d="M454.89,346.695s.466.2.664,1.4l-1.639.5s-1.073-1.2.074-2Z" transform="translate(-438.214 -336.047)" fill="#2a94f4"/>
        <path id="Caminho_443" data-name="Caminho 443" d="M376.829,426.889c.132.359.809.371,1.164.239s.726-.338.59-.7a1.064,1.064,0,0,0-1.119-.483A.786.786,0,0,0,376.829,426.889Z" transform="translate(-364.714 -412.102)" fill="#ffe3ca"/>
        <path id="Caminho_444" data-name="Caminho 444" d="M365.2,446.427l-2.6-.334.037-.293,2.6.334a.148.148,0,0,1,.128.165h0A.148.148,0,0,1,365.2,446.427Z" transform="translate(-351.104 -431.153)" fill="#ffbe55"/>
        <path id="Caminho_445" data-name="Caminho 445" d="M273.5,367.934l-3.442-.442a.447.447,0,0,1-.384-.38l-.363-2.5a.337.337,0,0,1,.376-.384l3.161.4a.289.289,0,0,1,.252.252Z" transform="translate(-261.663 -352.948)" fill="#ffbe55"/>
        <path id="Caminho_446" data-name="Caminho 446" d="M309.4,403.815a.329.329,0,1,1-.285-.367A.329.329,0,0,1,309.4,403.815Z" transform="translate(-299.472 -390.546)" fill="#fff"/>
        <path id="Caminho_447" data-name="Caminho 447" d="M224.318,613.8l-.9.371-.565.041a.592.592,0,0,0-.532.462l-.025.12,3.062.384.062-1.234Z" transform="translate(-216.594 -592.219)" fill="#ffbe55"/>
        <path id="Caminho_448" data-name="Caminho 448" d="M272.31,582.594l.3-1.346-1.11-.149-.3,1.35Z" transform="translate(-263.476 -560.868)" fill="#ffe3ca"/>
        <path id="Caminho_449" data-name="Caminho 449" d="M277.322,450.587s-.087.743-1.42.842h-3.2l-1.511,4.214-1.589-.256,1.589-6.187,3.64.4Z" transform="translate(-261.942 -434.412)" fill="#0b4870"/>
        <path id="Caminho_450" data-name="Caminho 450" d="M156.941,544.561l-.958-.14-.508-.256a.592.592,0,0,0-.693.124l-.083.091,2.431,1.9.685-1.028Z" transform="translate(-151.784 -525.399)" fill="#ffbe55"/>
        <path id="Caminho_451" data-name="Caminho 451" d="M209.883,531.062l.834-1.061-.875-.7L209,530.369Z" transform="translate(-203.843 -511.206)" fill="#ffe3ca"/>
        <path id="Caminho_452" data-name="Caminho 452" d="M224.016,430.455l-2.468-.739c-.1-.033-.206-.066-.305-.107a.932.932,0,0,0-1.168.442c-.537.817-2.674,3.9-2.674,3.9l1.3.962,2.848-3.632a1.271,1.271,0,0,1,1.028-.524l2.2,0Z" transform="translate(-211.896 -415.568)" fill="#0b4870"/>
        <path id="Caminho_453" data-name="Caminho 453" d="M388.5,244.488c.045-.083.809-1.445.107-1.787a.763.763,0,0,0-.9-.64c-.8.078-.586.314-1.1.2s-.995.149-.958.574.367.611.958.508a3.455,3.455,0,0,1,1.057-.025l.491.144Z" transform="translate(-373.204 -235.817)" fill="#ffbe55"/>
        <g id="Grupo_127" data-name="Grupo 127" transform="translate(14.129 8.415)">
          <g id="Grupo_126" data-name="Grupo 126" transform="translate(0 0)">
            <path id="Caminho_454" data-name="Caminho 454" d="M427.663,296.529,427.6,294.8l-1.2.425.095,1.387c.021.322.2.574.524.549l.1-.008A.584.584,0,0,0,427.663,296.529Z" transform="translate(-426.4 -294.8)" fill="#ffe3ca"/>
          </g>
          <path id="Caminho_455" data-name="Caminho 455" d="M428.361,300.6s.227,1.445-1.007,1.527l-.054-.685Z" transform="translate(-427.263 -300.361)" fill="#fcd2b1"/>
        </g>
        <path id="Caminho_456" data-name="Caminho 456" d="M400.1,267.193h.041a1.113,1.113,0,0,0,1.061-1.164l-.058-1.255a.293.293,0,0,0-.3-.277l-1.465.07a.517.517,0,0,0-.491.541l.05,1.032A1.111,1.111,0,0,0,400.1,267.193Z" transform="translate(-385.894 -257.333)" fill="#ffe3ca"/>
        <path id="Caminho_457" data-name="Caminho 457" d="M448.284,283.285a.376.376,0,1,0,.359-.392A.369.369,0,0,0,448.284,283.285Z" transform="translate(-433.251 -274.969)" fill="#ffe3ca"/>
        <path id="Caminho_458" data-name="Caminho 458" d="M403.424,266.178l.074,1.4a.365.365,0,0,1-.149.326.293.293,0,0,1-.235.091c-.334-.05-.182-.3-.858-.26-.619.033-.574.38-.574.38a.93.93,0,0,0,.97.685,1.022,1.022,0,0,0,1.176-1.222l-.083-1.482Z" transform="translate(-388.573 -258.869)" fill="#ffbe55"/>
        <path id="Caminho_459" data-name="Caminho 459" d="M399.9,258.648a2.716,2.716,0,0,0,.97-.078,1.182,1.182,0,0,1,1.028.322s.124.215.153.206.206-.074.206-.074l-.008-.648-.421-.326-1.164-.05-.689.153Z" transform="translate(-386.864 -251.104)" fill="#ffbe55"/>
        <g id="Grupo_128" data-name="Grupo 128" transform="translate(10.803 1.836)">
          <path id="Caminho_460" data-name="Caminho 460" d="M366.824,154.355l.029.062-.615.281-.029-.066a1.2,1.2,0,0,0-.619-.59.827.827,0,0,1-.475-.528.88.88,0,0,1,.487-1.019.864.864,0,0,1,1.147.4.8.8,0,0,1,.025.611A1.109,1.109,0,0,0,366.824,154.355Z" transform="translate(-364.29 -151.709)" fill="#ffbe55"/>
          <path id="Caminho_461" data-name="Caminho 461" d="M395.293,204.565a.139.139,0,0,1-.074.186l-.355.161a.14.14,0,0,1-.19-.07l-.074-.161.615-.281.078.165Z" transform="translate(-392.586 -201.552)" fill="#ffbe55"/>
          <rect id="Retângulo_19" data-name="Retângulo 19" width="0.161" height="0.371" transform="translate(0.921 0.133) rotate(-24.52)" fill="#ffbe55"/>
          <path id="Caminho_462" data-name="Caminho 462" d="M398.4,135.751l.149.054.14-.351-.149-.054Zm0,0" transform="translate(-396.229 -135.4)" fill="#ffbe55"/>
          <rect id="Retângulo_20" data-name="Retângulo 20" width="0.388" height="0.157" transform="translate(3.001 1.029) rotate(-24.52)" fill="#ffbe55"/>
          <rect id="Retângulo_21" data-name="Retângulo 21" width="0.388" height="0.157" transform="translate(0.026 2.387) rotate(-24.52)" fill="#ffbe55"/>
          <path id="Caminho_463" data-name="Caminho 463" d="M345.858,160.3l-.058.149.355.124.054-.149Zm0,0" transform="translate(-345.8 -159.272)" fill="#ffbe55"/>
        </g>
        <path id="Caminho_464" data-name="Caminho 464" d="M192.131,209.214l-.169-.169a.15.15,0,0,0-.215,0l-.025.025a1.4,1.4,0,0,0-.759-.231h0a1.293,1.293,0,0,0-.487.091l.3-.3a.3.3,0,0,0,.12.029.271.271,0,0,0,.2-.083.278.278,0,0,0,.083-.2.271.271,0,0,0-.083-.2.278.278,0,0,0-.2-.083.271.271,0,0,0-.2.083.278.278,0,0,0-.083.2.244.244,0,0,0,.029.12l-.537.537-.016-.017a.15.15,0,0,0-.215,0l-.173.169a.15.15,0,0,0,0,.215l.017.016-.537.537a.3.3,0,0,0-.12-.029.271.271,0,0,0-.2.083.281.281,0,0,0,0,.4.278.278,0,0,0,.2.083.271.271,0,0,0,.2-.083.278.278,0,0,0,.054-.322l.3-.3a1.419,1.419,0,0,0-.091.491,1.348,1.348,0,0,0,.231.759l-.029.029a.154.154,0,0,0,0,.215l.169.169a.15.15,0,0,0,.215,0l.169-.169a.155.155,0,0,0,0-.215l-.169-.169a.15.15,0,0,0-.215,0l0,0a1.2,1.2,0,0,1,.033-1.3.127.127,0,0,0,.054.012.15.15,0,0,0,.107-.045l.169-.169a.148.148,0,0,0,.033-.161,1.189,1.189,0,0,1,1.3-.033l-.012.012a.155.155,0,0,0,0,.215l.169.169a.149.149,0,0,0,.215,0l.169-.169a.154.154,0,0,0,.012-.223Zm-2.014,1.965-.12.12-.12-.12.12-.12Zm.706-2.873a.1.1,0,0,1,.066-.029.082.082,0,0,1,.066.029.1.1,0,0,1,.029.066.082.082,0,0,1-.029.066.1.1,0,0,1-.066.029.082.082,0,0,1-.066-.029.1.1,0,0,1-.029-.066.136.136,0,0,1,.029-.066Zm-1.7,1.969a.1.1,0,0,1-.066.029.082.082,0,0,1-.066-.029.092.092,0,0,1,0-.132.1.1,0,0,1,.066-.029.082.082,0,0,1,.066.029.092.092,0,0,1,0,.132Zm.85-.863-.12-.12.12-.12.12.12Zm1.878.029-.12-.12.12-.12.12.12Zm0,0" transform="translate(-184.453 -203.263)" fill="#0e538c"/>
      </g>
    </g>
    <g id="education-laptop" transform="translate(475.468 52)">
      <g id="education-laptop-2" data-name="education-laptop" transform="translate(-11.6 -8)">
        <g id="Grupo_165" data-name="Grupo 165">
          <g id="Grupo_151" data-name="Grupo 151">
            <g id="Grupo_147" data-name="Grupo 147" transform="translate(1.627 0.926)">
              <path id="Caminho_615" data-name="Caminho 615" d="M81.853,120.092a1.45,1.45,0,0,1-1.45,1.45H63.381a1.45,1.45,0,0,1-1.45-1.45V110.087a1.45,1.45,0,0,1,1.45-1.45H80.4a1.45,1.45,0,0,1,1.45,1.45Z" transform="translate(-61.931 -108.637)" fill="#cce9ff"/>
            </g>
            <g id="Grupo_148" data-name="Grupo 148" transform="translate(0 14.4)">
              <path id="Caminho_616" data-name="Caminho 616" d="M61.52,299.1H39.92a.8.8,0,0,1-.8-.8v-.4a.4.4,0,0,1,.4-.4h22.4a.4.4,0,0,1,.4.4v.4A.8.8,0,0,1,61.52,299.1Z" transform="translate(-39.12 -297.499)" fill="#f7f7f7"/>
            </g>
            <g id="Grupo_149" data-name="Grupo 149" transform="translate(9.6 14.4)">
              <path id="Caminho_617" data-name="Caminho 617" d="M177.034,298.3h-2.706a.4.4,0,0,1-.358-.221l-.29-.579h4l-.289.579A.4.4,0,0,1,177.034,298.3Z" transform="translate(-173.681 -297.498)" fill="#0b4870"/>
            </g>
            <g id="Grupo_150" data-name="Grupo 150" transform="translate(0.8)">
              <path id="Caminho_618" data-name="Caminho 618" d="M70.734,95.656h-19.2a1.2,1.2,0,0,0-1.2,1.2v13.2h21.6v-13.2A1.2,1.2,0,0,0,70.734,95.656Zm0,12.8a.4.4,0,0,1-.4.4h-18.4a.4.4,0,0,1-.4-.4v-11.2a.4.4,0,0,1,.4-.4h18.4a.4.4,0,0,1,.4.4v11.2Z" transform="translate(-50.334 -95.656)" fill="#d3d3d3"/>
            </g>
          </g>
          <g id="Grupo_164" data-name="Grupo 164" transform="translate(5.313 4.262)">
            <g id="Grupo_153" data-name="Grupo 153" transform="translate(0 0)" opacity="0.97">
              <g id="Grupo_152" data-name="Grupo 152">
                <path id="Caminho_619" data-name="Caminho 619" d="M114.893,156.269h-.867a.434.434,0,0,1-.434-.433h0a.434.434,0,0,1,.434-.434h.867a.434.434,0,0,1,.433.434h0A.433.433,0,0,1,114.893,156.269Z" transform="translate(-113.592 -155.402)" fill="#ffbe55"/>
              </g>
            </g>
            <g id="Grupo_155" data-name="Grupo 155" transform="translate(2.602)" opacity="0.97">
              <g id="Grupo_154" data-name="Grupo 154">
                <path id="Caminho_620" data-name="Caminho 620" d="M160.031,155.835a.433.433,0,0,1-.434.433h-9.105a.433.433,0,0,1,0-.867H159.6A.434.434,0,0,1,160.031,155.835Z" transform="translate(-150.059 -155.401)" fill="#f7f7f7"/>
              </g>
            </g>
            <g id="Grupo_157" data-name="Grupo 157" transform="translate(0 1.734)" opacity="0.97">
              <g id="Grupo_156" data-name="Grupo 156">
                <path id="Caminho_621" data-name="Caminho 621" d="M114.893,180.579h-.867a.434.434,0,0,1-.434-.433h0a.434.434,0,0,1,.434-.434h.867a.434.434,0,0,1,.433.434h0A.433.433,0,0,1,114.893,180.579Z" transform="translate(-113.592 -179.712)" fill="#ffbe55"/>
              </g>
            </g>
            <g id="Grupo_159" data-name="Grupo 159" transform="translate(2.602 1.735)" opacity="0.97">
              <g id="Grupo_158" data-name="Grupo 158">
                <path id="Caminho_622" data-name="Caminho 622" d="M160.031,180.149a.434.434,0,0,1-.434.434h-9.105a.433.433,0,0,1,0-.867H159.6A.433.433,0,0,1,160.031,180.149Z" transform="translate(-150.059 -179.716)" fill="#f7f7f7"/>
              </g>
            </g>
            <g id="Grupo_161" data-name="Grupo 161" transform="translate(0 3.469)" opacity="0.97">
              <g id="Grupo_160" data-name="Grupo 160">
                <path id="Caminho_623" data-name="Caminho 623" d="M114.893,204.888h-.867a.434.434,0,0,1-.434-.433h0a.434.434,0,0,1,.434-.434h.867a.434.434,0,0,1,.433.434h0A.433.433,0,0,1,114.893,204.888Z" transform="translate(-113.592 -204.021)" fill="#ffbe55"/>
              </g>
            </g>
            <g id="Grupo_163" data-name="Grupo 163" transform="translate(2.602 3.469)" opacity="0.97">
              <g id="Grupo_162" data-name="Grupo 162">
                <path id="Caminho_624" data-name="Caminho 624" d="M160.031,204.455a.434.434,0,0,1-.434.434h-9.105a.434.434,0,0,1,0-.868H159.6A.434.434,0,0,1,160.031,204.455Z" transform="translate(-150.059 -204.021)" fill="#f7f7f7"/>
              </g>
            </g>
          </g>
        </g>
      </g>
    </g>
    <g id="Grupo_de_máscara_1" data-name="Grupo de máscara 1" transform="translate(-3 5.527)" clip-path="url(#clip-path)">
      <g id="survey-tick" transform="translate(486.067 277.629)">
        <g id="survey-tick-2" data-name="survey-tick" transform="translate(-25.951 -20.629)">
          <g id="Grupo_227" data-name="Grupo 227">
            <path id="Caminho_655" data-name="Caminho 655" d="M73.19,98.782v15.863a3.743,3.743,0,0,1-3.743,3.743H37.4a3.735,3.735,0,0,1-3-1.506c-.05-.067-.1-.136-.144-.207a3.721,3.721,0,0,1-.6-2.03V82.6A3.742,3.742,0,0,1,37.4,78.86H69.447a3.738,3.738,0,0,1,3.237,1.864l-5.151,5.153-11.4,11.4-8.3-8.3a4.454,4.454,0,0,0-5.861,0l-3.42,3.418a3.841,3.841,0,0,0-1,1.98,4.387,4.387,0,0,0,1,3.883L53.2,112.911a4.458,4.458,0,0,0,5.861,0l3.42-3.42Z" transform="translate(-33.66 -77.13)" fill="#cce9ff"/>
            <g id="Grupo_226" data-name="Grupo 226" transform="translate(3.787)">
              <path id="Caminho_656" data-name="Caminho 656" d="M104.95,78.149,93.678,89.423,82.969,100.131l-3.42,3.42a4.458,4.458,0,0,1-5.861,0L59.034,88.9a4.387,4.387,0,0,1-1-3.883,3.84,3.84,0,0,1,1-1.98l3.42-3.418a4.454,4.454,0,0,1,5.861,0l8.3,8.3,11.4-11.4,5.151-5.153,2.5-2.495a4.454,4.454,0,0,1,5.861,0l3.42,3.418a3.673,3.673,0,0,1,.872,1.468A4.47,4.47,0,0,1,104.95,78.149Z" transform="translate(-57.935 -67.77)" fill="#2a94f4"/>
            </g>
          </g>
        </g>
      </g>
    </g>
  </g>
</svg>
